<svg version="1.1" id="Layer_1" xmlns="http://www.w3.org/2000/svg" xmlns:xlink="http://www.w3.org/1999/xlink" x="0px" y="0px"
	 width="100%" viewBox="0 0 500 500" enable-background="new 0 0 500 500" xml:space="preserve">
<path fill="#FFFFFF" opacity="1.000000" stroke="none" 
	d="
M331.000000,501.000000 
	C220.666687,501.000000 110.833389,501.000000 1.000059,501.000000 
	C1.000039,334.333405 1.000039,167.666794 1.000020,1.000148 
	C167.666565,1.000099 334.333130,1.000099 500.999756,1.000049 
	C500.999847,167.666519 500.999847,334.333038 500.999939,500.999786 
	C444.500000,501.000000 388.000000,501.000000 331.000000,501.000000 
M301.421387,378.921783 
	C301.554840,378.823425 301.808807,378.712524 301.800079,378.628967 
	C301.768768,378.328186 301.648865,378.036621 300.698395,377.321289 
	C300.438599,377.638000 300.178833,377.954712 299.919037,378.271423 
	C300.258484,378.452789 300.597900,378.634155 301.421387,378.921783 
M137.106873,113.610825 
	C120.662262,127.371712 104.217651,141.132599 87.608932,155.030823 
	C89.596603,158.615524 91.393097,161.855438 93.177643,165.073792 
	C95.385139,163.815414 97.058647,162.709625 98.858360,161.876495 
	C100.811295,160.972458 102.840294,160.176636 104.908539,159.588135 
	C111.566498,157.693710 116.794632,159.951569 118.745705,166.520599 
	C120.236908,171.541351 120.990364,176.961624 121.014389,182.209015 
	C121.195160,221.699432 121.131798,261.191101 121.082870,300.682281 
	C121.078552,304.163422 121.256516,307.832825 120.271530,311.088562 
	C117.617348,319.861420 114.379799,328.457794 111.178223,337.688080 
	C113.326622,339.506256 116.212685,341.948730 118.721771,344.072144 
	C122.312042,342.179810 125.308128,340.405762 128.459808,338.974213 
	C140.241013,333.622986 152.213776,335.427216 164.162979,338.301361 
	C171.912323,340.165283 179.527634,343.008728 187.378174,343.945953 
	C206.676636,346.249969 222.470032,337.698242 236.172943,325.356720 
	C253.623962,309.639465 270.412994,293.187042 287.473083,277.036438 
	C288.510254,276.054535 289.421722,274.939789 290.435089,273.839752 
	C260.993622,258.498810 244.883408,233.210449 237.371887,202.646118 
	C229.599396,171.019974 238.243210,142.503845 259.680634,118.119446 
	C251.462708,110.803444 242.411865,107.292213 232.462097,106.217194 
	C230.289932,105.982506 227.538101,106.948891 225.718719,108.275078 
	C211.864044,118.374100 198.179199,128.705963 184.430862,138.951096 
	C180.371811,141.975891 176.278748,144.955048 172.137802,148.001816 
	C171.705551,147.210571 171.448135,146.942810 171.418427,146.651810 
	C171.232544,144.830475 171.148727,142.998001 170.937302,141.180130 
	C169.492737,128.759323 166.240616,117.245461 154.779068,110.044464 
	C147.115768,105.229820 147.087418,105.279396 140.359299,110.939659 
	C139.467621,111.689812 138.549896,112.409004 137.106873,113.610825 
M410.301117,226.441208 
	C409.269806,226.944260 408.218445,227.410278 407.210419,227.956299 
	C400.550873,231.563553 397.386414,230.368576 395.621338,223.007309 
	C394.580261,218.665695 394.561951,214.084930 393.622192,209.710876 
	C392.946899,206.567932 393.761505,204.443817 395.885437,202.132538 
	C402.828766,194.576614 409.536224,186.803894 415.960968,179.536926 
	C413.774506,176.889587 411.990173,174.729141 409.921692,172.224655 
	C400.757721,181.060593 390.150818,179.867264 379.426208,178.459579 
	C370.187592,177.246933 360.917969,176.250519 351.643555,175.348877 
	C349.965302,175.185715 347.617310,175.344238 346.560577,176.367966 
	C335.579193,187.006516 324.798981,197.852707 314.169769,208.435287 
	C316.446045,211.096725 318.351532,213.324661 320.248291,215.542389 
	C330.875000,206.922012 341.879303,212.050156 352.985535,212.742401 
	C352.985535,215.949707 352.985870,218.600571 352.985474,221.251434 
	C352.984558,227.971725 349.916351,231.841034 343.389526,232.774887 
	C341.148132,233.095581 338.671936,232.961868 336.495361,232.350739 
	C324.884491,229.090759 315.639191,222.139999 307.986206,213.053986 
	C294.609100,197.172043 287.103577,178.716095 285.194000,158.115158 
	C283.973114,144.944382 284.829376,132.121002 294.385254,121.474274 
	C304.282166,110.447571 314.501068,109.931610 324.746826,120.581917 
	C329.356232,125.373314 333.130371,130.973099 337.780762,135.718796 
	C342.167114,140.195038 346.908783,144.461411 352.048737,148.018768 
	C356.465363,151.075485 361.149750,151.179459 366.267853,147.666138 
	C376.964752,140.323181 388.207977,133.776810 399.213440,126.881874 
	C400.696838,125.952530 402.102966,124.899849 403.692749,123.802177 
	C401.800110,120.807098 400.229034,118.320869 398.567719,115.691856 
	C390.688141,119.287598 384.581085,116.860138 379.610779,110.899757 
	C375.133698,105.530861 370.971100,99.900391 366.520203,94.508781 
	C358.235962,84.473587 347.963959,77.743584 334.529327,79.557732 
	C327.090759,80.562195 319.457611,82.931351 312.798401,86.391151 
	C290.177887,98.143631 272.337097,115.517242 257.988037,136.409500 
	C248.799515,149.787964 243.749329,164.934952 244.496521,181.127396 
	C245.880402,211.117630 257.566925,236.753433 280.776733,256.200562 
	C302.468201,274.375488 334.150452,275.165497 354.252991,249.622452 
	C354.810272,248.914337 355.663574,248.439240 356.530365,247.731781 
	C360.262665,256.615448 364.903687,264.360016 373.579132,269.165710 
	C387.849792,257.559631 402.027435,246.029205 416.497437,234.261017 
	C414.451599,231.565964 412.657074,229.201965 410.301117,226.441208 
M98.364937,388.057037 
	C101.172241,387.039673 104.670517,386.680603 106.514320,384.745270 
	C107.535873,383.672974 105.790741,379.964813 105.315147,377.558380 
	C105.480232,375.576263 106.227760,371.816071 105.739853,371.648315 
	C101.134102,370.064392 96.317772,369.092773 91.562172,367.944580 
	C94.135483,372.884186 94.271675,383.526917 91.355980,388.057098 
	C93.491310,388.057098 95.474892,388.057098 98.364937,388.057037 
M310.778992,383.216644 
	C310.119507,384.723938 309.460052,386.231232 308.758728,387.834198 
	C311.306885,387.834198 314.066315,387.834198 316.017273,387.834198 
	C315.639008,385.274323 315.261078,382.716553 314.692657,378.869934 
	C319.502777,382.254425 319.312469,389.679962 326.138458,387.686157 
	C324.341827,384.961304 322.560211,382.259186 321.620239,380.833588 
	C322.554169,377.075165 324.474609,373.624237 323.494202,372.263763 
	C322.112701,370.346741 318.656311,369.630798 315.948090,369.053070 
	C313.586670,368.549286 311.032715,368.948029 308.170227,368.948029 
	C312.639313,373.066315 310.034973,377.958344 310.778992,383.216644 
M144.710892,369.168762 
	C140.915405,369.168762 137.119919,369.168762 133.243027,369.168762 
	C136.341278,371.891968 136.389679,384.938782 132.960632,388.038391 
	C136.097534,388.038391 138.903229,388.048615 141.708801,388.036133 
	C146.414780,388.015167 149.688126,385.911774 150.917038,381.272034 
	C152.375931,375.763977 150.621307,372.095459 144.710892,369.168762 
M395.971680,374.788391 
	C395.745209,379.140350 395.518738,383.492310 395.289001,387.907135 
	C396.963379,387.907135 399.602875,387.907135 401.588470,387.907135 
	C401.070923,385.370270 400.540771,382.771698 400.010651,380.173126 
	C404.744141,382.336395 404.600128,389.709747 411.483398,387.639832 
	C409.643250,384.936462 407.818665,382.255890 406.870514,380.862976 
	C407.784302,377.078766 409.596252,373.900665 408.675629,372.214417 
	C407.684418,370.398895 404.212189,369.607330 401.673615,369.063263 
	C399.298523,368.554291 396.728577,368.954376 394.321686,368.954376 
	C394.913818,370.718628 395.442688,372.294434 395.971680,374.788391 
M266.416016,370.189667 
	C268.843567,373.394348 268.839355,384.026520 266.446930,387.726746 
	C268.455139,387.726746 270.494995,387.726746 271.110077,387.726746 
	C270.788452,383.780914 270.482697,380.029907 270.176971,376.278870 
	C270.700531,376.190704 271.224121,376.102509 271.747681,376.014313 
	C275.038696,380.228302 278.329681,384.442322 281.620667,388.656311 
	C281.974945,388.374268 282.329193,388.092194 282.683472,387.810120 
	C283.089325,381.576294 283.495209,375.342438 283.900208,369.122314 
	C283.018097,369.122314 281.065369,369.122314 280.067291,369.122314 
	C280.482788,372.968262 280.889221,376.730469 281.295654,380.492706 
	C278.199188,378.040558 275.958038,375.413422 274.283966,372.464386 
	C272.289307,368.950714 269.667511,368.092621 266.416016,370.189667 
M371.132172,378.464355 
	C372.181671,386.001648 375.149231,388.767975 381.504395,388.133392 
	C386.741943,387.610382 389.575745,383.632324 389.173523,377.367462 
	C388.844971,372.250092 386.021729,369.166992 381.310303,368.780579 
	C375.302948,368.287903 372.566315,370.679230 371.132172,378.464355 
M160.986816,381.045349 
	C160.951889,379.884857 160.571976,378.593872 160.951614,377.590210 
	C161.823914,375.283966 162.550522,372.284698 164.334991,371.180054 
	C165.575989,370.411774 168.476578,372.324432 171.532974,373.336487 
	C171.560791,373.289825 172.690308,372.235443 172.578323,371.335571 
	C172.475571,370.509766 171.088776,369.313385 170.172150,369.220154 
	C167.569870,368.955566 164.806030,368.702850 162.311813,369.302429 
	C157.997101,370.339661 155.543671,375.076172 156.201630,379.987579 
	C156.884888,385.087921 159.986130,387.912872 165.192032,388.193573 
	C169.728973,388.438171 173.636978,388.010162 172.982315,381.807556 
	C172.904083,381.066406 173.851898,380.216949 174.475052,379.162231 
	C171.548599,379.162231 168.944855,379.162231 166.815811,379.162231 
	C167.393265,381.385315 167.956039,383.551941 168.566696,385.902893 
	C163.129089,386.049133 163.129089,386.049133 160.986816,381.045349 
M233.874161,368.779114 
	C233.376297,368.820862 232.864227,368.801605 232.382721,368.913666 
	C226.845428,370.201813 224.479828,373.512421 224.825027,379.455688 
	C225.106583,384.302948 227.746582,387.358887 232.258392,388.060120 
	C237.904480,388.937683 239.158875,388.019745 241.338898,381.669495 
	C241.623978,380.839050 242.382080,380.171021 242.991455,379.330750 
	C240.169952,379.330750 237.662979,379.330750 235.557556,379.330750 
	C236.137894,381.594482 236.661667,383.637665 237.223053,385.827515 
	C232.985367,386.810089 230.537964,385.750244 229.729156,382.129028 
	C228.840912,378.152191 228.234024,373.761627 232.195908,371.331818 
	C233.650101,370.439911 236.673065,372.105927 238.980438,372.605164 
	C239.950211,373.302765 241.046600,372.254517 240.951736,371.328247 
	C240.869415,370.524170 239.547150,369.562164 238.576263,369.206268 
	C237.368423,368.763489 235.958618,368.871704 233.874161,368.779114 
M116.279938,386.531769 
	C116.611015,384.355499 116.942093,382.179260 117.279297,379.962677 
	C122.075775,381.793854 125.524719,383.251312 121.726639,387.823059 
	C124.681610,387.823059 127.247772,387.823059 129.423767,387.823059 
	C127.641479,383.223572 126.012215,378.637299 124.070427,374.187408 
	C123.242722,372.290619 121.761902,370.678833 120.577904,368.937531 
	C119.251274,370.729767 117.585960,372.364929 116.667038,374.346252 
	C114.623375,378.752655 112.953331,383.332336 110.938248,388.318329 
	C112.839417,387.910553 114.852654,387.478729 116.279938,386.531769 
M333.583374,386.182465 
	C334.251556,384.080688 334.919769,381.978912 335.644287,379.700012 
	C342.102509,383.216461 342.343109,383.754761 339.934357,387.682068 
	C342.580902,387.682068 345.230682,387.682068 347.109985,387.682068 
	C345.310699,382.710815 343.681763,377.762207 341.689484,372.964417 
	C341.047516,371.418488 339.449158,370.269714 338.288330,368.939240 
	C337.233337,370.193756 335.795959,371.288422 335.192566,372.731720 
	C333.094116,377.751129 331.284790,382.891418 329.125092,388.623871 
	C330.890289,387.905426 332.582092,387.216827 333.583374,386.182465 
M203.665588,375.646759 
	C203.271988,374.140594 202.878387,372.634460 202.484787,371.128296 
	C204.413361,371.800110 206.341934,372.471954 209.114319,373.437714 
	C209.221970,372.763092 209.735489,370.395020 209.586258,370.352509 
	C207.293076,369.699005 204.781479,368.695435 202.596802,369.137573 
	C200.905975,369.479797 198.699509,371.540192 198.375336,373.166290 
	C198.052750,374.784393 199.593536,376.947296 200.711014,378.606049 
	C201.270447,379.436462 202.894745,379.474548 203.703857,380.228790 
	C205.015137,381.451172 206.125595,382.921448 207.084015,384.436859 
	C207.174438,384.579803 205.144608,386.547638 204.841568,386.373810 
	C203.332413,385.508270 202.046021,384.237579 200.741714,383.043365 
	C200.417908,382.746887 200.319382,382.204315 200.077591,381.690399 
	C196.944443,383.849640 196.858231,385.652191 199.494171,387.358917 
	C202.789261,389.492371 209.084473,388.076752 210.485809,384.806976 
	C212.330917,380.501831 209.729904,378.359131 206.181702,376.835449 
	C205.574066,376.574524 204.983429,376.274078 203.665588,375.646759 
M255.449768,388.025146 
	C257.560883,388.025146 259.671997,388.025146 262.166321,388.025146 
	C262.069183,386.134674 261.993408,384.659973 261.969360,384.191956 
	C258.998901,385.074249 256.335388,385.865387 253.402557,386.736511 
	C253.402557,380.724915 253.402557,375.965118 253.402557,369.781586 
	C256.429626,371.114288 258.739990,372.131409 260.987793,373.121033 
	C260.987793,372.114410 260.987793,370.599945 260.987793,369.060547 
	C256.181244,369.060547 251.709900,369.060547 247.169525,369.060547 
	C249.775040,373.246429 249.688004,384.186310 246.924149,388.025146 
	C249.567154,388.025146 252.045395,388.025146 255.449768,388.025146 
M192.683685,383.099396 
	C190.991974,386.627991 188.246597,386.763763 185.317505,385.837006 
	C185.317505,380.700500 185.317505,375.940826 185.317505,369.913696 
	C188.080582,371.201935 190.381546,372.274719 192.674805,373.343903 
	C192.674805,372.235077 192.674805,370.720825 192.674805,369.198303 
	C187.677917,369.198303 182.987839,369.198303 178.057602,369.198303 
	C181.253464,372.998047 181.229630,383.901215 177.946198,388.066315 
	C180.711105,388.066315 183.162720,388.066345 185.614319,388.066345 
	C188.239349,388.066345 190.864365,388.066315 193.922699,388.066315 
	C193.757355,386.106140 193.637024,384.679504 192.683685,383.099396 
M303.671326,372.874817 
	C304.224213,369.932831 303.287537,368.613403 300.029816,368.864807 
	C296.457001,369.140503 292.846497,368.927582 288.945251,368.927582 
	C291.919830,372.992523 291.904175,383.928528 289.176849,387.825867 
	C294.162476,387.825867 299.086456,387.825867 304.131134,387.825867 
	C304.131134,386.119659 304.131134,384.644226 304.131134,383.961975 
	C301.464874,384.922974 298.919312,385.840424 296.249786,386.802582 
	C296.249786,380.828217 296.249786,375.959167 296.249786,369.756744 
	C298.920685,371.206818 301.129456,372.406006 303.671326,372.874817 
M356.987701,371.829285 
	C356.824402,377.170868 356.661102,382.512482 356.501007,387.749451 
	C358.132904,387.749451 360.852112,387.749451 363.822571,387.749451 
	C361.790894,385.561035 360.057709,373.079041 361.633728,371.596375 
	C362.257538,371.009552 364.031403,371.165497 365.014374,371.594940 
	C365.774231,371.926941 366.117584,373.212189 367.357422,375.233002 
	C367.357422,372.338196 367.357422,370.841034 367.357422,369.140656 
	C361.861877,369.140656 356.594635,369.140656 351.145386,369.140656 
	C351.145386,370.808350 351.145386,372.322815 351.145386,373.412964 
	C353.054077,372.565430 354.843994,371.770660 356.987701,371.829285 
z"/>
<path fill="#162029" opacity="1.000000" stroke="none" 
	d="
M137.375549,113.376686 
	C138.549896,112.409004 139.467621,111.689812 140.359299,110.939659 
	C147.087418,105.279396 147.115768,105.229820 154.779068,110.044464 
	C166.240616,117.245461 169.492737,128.759323 170.937302,141.180130 
	C171.148727,142.998001 171.232544,144.830475 171.418427,146.651810 
	C171.448135,146.942810 171.705551,147.210571 172.137802,148.001816 
	C176.278748,144.955048 180.371811,141.975891 184.430862,138.951096 
	C198.179199,128.705963 211.864044,118.374100 225.718719,108.275078 
	C227.538101,106.948891 230.289932,105.982506 232.462097,106.217194 
	C242.411865,107.292213 251.462708,110.803444 259.680634,118.119446 
	C238.243210,142.503845 229.599396,171.019974 237.371887,202.646118 
	C244.883408,233.210449 260.993622,258.498810 290.435089,273.839752 
	C289.421722,274.939789 288.510254,276.054535 287.473083,277.036438 
	C270.412994,293.187042 253.623962,309.639465 236.172943,325.356720 
	C222.470032,337.698242 206.676636,346.249969 187.378174,343.945953 
	C179.527634,343.008728 171.912323,340.165283 164.162979,338.301361 
	C152.213776,335.427216 140.241013,333.622986 128.459808,338.974213 
	C125.308128,340.405762 122.312042,342.179810 118.721771,344.072144 
	C116.212685,341.948730 113.326622,339.506256 111.178223,337.688080 
	C114.379799,328.457794 117.617348,319.861420 120.271530,311.088562 
	C121.256516,307.832825 121.078552,304.163422 121.082870,300.682281 
	C121.131798,261.191101 121.195160,221.699432 121.014389,182.209015 
	C120.990364,176.961624 120.236908,171.541351 118.745705,166.520599 
	C116.794632,159.951569 111.566498,157.693710 104.908539,159.588135 
	C102.840294,160.176636 100.811295,160.972458 98.858360,161.876495 
	C97.058647,162.709625 95.385139,163.815414 93.177643,165.073792 
	C91.393097,161.855438 89.596603,158.615524 87.608932,155.030823 
	C104.217651,141.132599 120.662262,127.371712 137.375549,113.376686 
M239.122055,302.901337 
	C248.138855,296.916565 250.875626,286.069183 245.915894,275.110504 
	C241.120819,264.515686 232.826813,257.177216 222.849609,251.731384 
	C206.714096,242.924133 189.821960,240.692596 172.271408,246.300659 
	C172.271408,260.036652 172.271408,273.296234 172.271408,285.630859 
	C180.716553,287.915497 188.807220,289.669739 196.586594,292.333160 
	C204.098236,294.904968 211.238953,298.540253 218.635635,301.473785 
	C225.009079,304.001404 231.520767,306.112396 239.122055,302.901337 
M186.583862,155.078842 
	C182.669769,157.891098 178.577148,160.494766 174.928726,163.617432 
	C173.453064,164.880447 172.181015,167.255615 172.128586,169.160782 
	C171.854080,179.137848 172.000641,189.126495 172.000732,199.111115 
	C172.000824,208.188583 172.000748,217.266068 172.000748,226.343536 
	C172.473663,226.702332 172.946564,227.061127 173.419479,227.419922 
	C187.229691,215.078552 201.550354,203.246002 214.604080,190.150574 
	C219.981186,184.756271 223.525269,176.983292 226.286194,169.680908 
	C229.316269,161.666641 225.356766,153.769150 217.487991,150.256729 
	C208.470047,146.231339 199.192001,143.711349 190.799988,152.038895 
	C189.750626,153.080185 188.400223,153.818085 186.583862,155.078842 
z"/>
<path fill="#BD9D24" opacity="1.000000" stroke="none" 
	d="
M410.581818,226.639587 
	C412.657074,229.201965 414.451599,231.565964 416.497437,234.261017 
	C402.027435,246.029205 387.849792,257.559631 373.579132,269.165710 
	C364.903687,264.360016 360.262665,256.615448 356.530365,247.731781 
	C355.663574,248.439240 354.810272,248.914337 354.252991,249.622452 
	C334.150452,275.165497 302.468201,274.375488 280.776733,256.200562 
	C257.566925,236.753433 245.880402,211.117630 244.496521,181.127396 
	C243.749329,164.934952 248.799515,149.787964 257.988037,136.409500 
	C272.337097,115.517242 290.177887,98.143631 312.798401,86.391151 
	C319.457611,82.931351 327.090759,80.562195 334.529327,79.557732 
	C347.963959,77.743584 358.235962,84.473587 366.520203,94.508781 
	C370.971100,99.900391 375.133698,105.530861 379.610779,110.899757 
	C384.581085,116.860138 390.688141,119.287598 398.567719,115.691856 
	C400.229034,118.320869 401.800110,120.807098 403.692749,123.802177 
	C402.102966,124.899849 400.696838,125.952530 399.213440,126.881874 
	C388.207977,133.776810 376.964752,140.323181 366.267853,147.666138 
	C361.149750,151.179459 356.465363,151.075485 352.048737,148.018768 
	C346.908783,144.461411 342.167114,140.195038 337.780762,135.718796 
	C333.130371,130.973099 329.356232,125.373314 324.746826,120.581917 
	C314.501068,109.931610 304.282166,110.447571 294.385254,121.474274 
	C284.829376,132.121002 283.973114,144.944382 285.194000,158.115158 
	C287.103577,178.716095 294.609100,197.172043 307.986206,213.053986 
	C315.639191,222.139999 324.884491,229.090759 336.495361,232.350739 
	C338.671936,232.961868 341.148132,233.095581 343.389526,232.774887 
	C349.916351,231.841034 352.984558,227.971725 352.985474,221.251434 
	C352.985870,218.600571 352.985535,215.949707 352.985535,212.742401 
	C341.879303,212.050156 330.875000,206.922012 320.248291,215.542389 
	C318.351532,213.324661 316.446045,211.096725 314.169769,208.435287 
	C324.798981,197.852707 335.579193,187.006516 346.560577,176.367966 
	C347.617310,175.344238 349.965302,175.185715 351.643555,175.348877 
	C360.917969,176.250519 370.187592,177.246933 379.426208,178.459579 
	C390.150818,179.867264 400.757721,181.060593 409.921692,172.224655 
	C411.990173,174.729141 413.774506,176.889587 415.960968,179.536926 
	C409.536224,186.803894 402.828766,194.576614 395.885437,202.132538 
	C393.761505,204.443817 392.946899,206.567932 393.622192,209.710876 
	C394.561951,214.084930 394.580261,218.665695 395.621338,223.007309 
	C397.386414,230.368576 400.550873,231.563553 407.210419,227.956299 
	C408.218445,227.410278 409.269806,226.944260 410.581818,226.639587 
z"/>
<path fill="#303941" opacity="1.000000" stroke="none" 
	d="
M97.911713,388.057068 
	C95.474892,388.057098 93.491310,388.057098 91.355980,388.057098 
	C94.271675,383.526917 94.135483,372.884186 91.562172,367.944580 
	C96.317772,369.092773 101.134102,370.064392 105.739853,371.648315 
	C106.227760,371.816071 105.480232,375.576263 105.315147,377.558380 
	C105.790741,379.964813 107.535873,383.672974 106.514320,384.745270 
	C104.670517,386.680603 101.172241,387.039673 97.911713,388.057068 
M99.148575,378.969757 
	C98.556419,381.228424 97.964272,383.487091 97.372116,385.745758 
	C97.881317,386.081055 98.390511,386.416321 98.899712,386.751617 
	C100.123611,385.825623 102.405945,384.828522 102.349533,383.988495 
	C102.234581,382.276459 100.859100,380.649109 99.148575,378.969757 
z"/>
<path fill="#222C34" opacity="1.000000" stroke="none" 
	d="
M310.779602,382.747589 
	C310.034973,377.958344 312.639313,373.066315 308.170227,368.948029 
	C311.032715,368.948029 313.586670,368.549286 315.948090,369.053070 
	C318.656311,369.630798 322.112701,370.346741 323.494202,372.263763 
	C324.474609,373.624237 322.554169,377.075165 321.620239,380.833588 
	C322.560211,382.259186 324.341827,384.961304 326.138458,387.686157 
	C319.312469,389.679962 319.502777,382.254425 314.692657,378.869934 
	C315.261078,382.716553 315.639008,385.274323 316.017273,387.834198 
	C314.066315,387.834198 311.306885,387.834198 308.758728,387.834198 
	C309.460052,386.231232 310.119507,384.723938 310.779602,382.747589 
M314.954895,373.525818 
	C314.954895,374.978607 314.954895,376.431396 314.954895,377.884186 
	C315.377350,378.155243 315.799805,378.426300 316.222290,378.697357 
	C317.353424,377.516022 319.075226,376.488770 319.435852,375.106415 
	C319.745270,373.920380 318.498016,372.328217 317.939178,370.915649 
	C316.945740,371.484589 315.952271,372.053497 314.954895,373.525818 
z"/>
<path fill="#2E373F" opacity="1.000000" stroke="none" 
	d="
M145.110992,369.293243 
	C150.621307,372.095459 152.375931,375.763977 150.917038,381.272034 
	C149.688126,385.911774 146.414780,388.015167 141.708801,388.036133 
	C138.903229,388.048615 136.097534,388.038391 132.960632,388.038391 
	C136.389679,384.938782 136.341278,371.891968 133.243027,369.168762 
	C137.119919,369.168762 140.915405,369.168762 145.110992,369.293243 
M142.847443,385.960144 
	C147.481461,383.236938 147.373535,378.867401 146.025208,374.717651 
	C145.408508,372.819672 142.929749,371.526703 141.295486,369.959381 
	C140.800278,370.316895 140.305069,370.674408 139.809860,371.031921 
	C139.809860,374.296783 139.808731,377.561615 139.810471,380.826447 
	C139.811081,381.980682 139.549088,383.230072 139.911850,384.257812 
	C140.181961,385.023071 141.264954,385.501373 142.847443,385.960144 
z"/>
<path fill="#212B33" opacity="1.000000" stroke="none" 
	d="
M395.971619,374.329285 
	C395.442688,372.294434 394.913818,370.718628 394.321686,368.954376 
	C396.728577,368.954376 399.298523,368.554291 401.673615,369.063263 
	C404.212189,369.607330 407.684418,370.398895 408.675629,372.214417 
	C409.596252,373.900665 407.784302,377.078766 406.870514,380.862976 
	C407.818665,382.255890 409.643250,384.936462 411.483398,387.639832 
	C404.600128,389.709747 404.744141,382.336395 400.010651,380.173126 
	C400.540771,382.771698 401.070923,385.370270 401.588470,387.907135 
	C399.602875,387.907135 396.963379,387.907135 395.289001,387.907135 
	C395.518738,383.492310 395.745209,379.140350 395.971619,374.329285 
M403.797516,377.529175 
	C405.875458,372.281464 405.241028,371.054901 399.963196,371.082458 
	C401.633423,373.243011 396.863800,377.645599 403.797516,377.529175 
z"/>
<path fill="#283139" opacity="1.000000" stroke="none" 
	d="
M266.236725,369.795502 
	C269.667511,368.092621 272.289307,368.950714 274.283966,372.464386 
	C275.958038,375.413422 278.199188,378.040558 281.295654,380.492706 
	C280.889221,376.730469 280.482788,372.968262 280.067291,369.122314 
	C281.065369,369.122314 283.018097,369.122314 283.900208,369.122314 
	C283.495209,375.342438 283.089325,381.576294 282.683472,387.810120 
	C282.329193,388.092194 281.974945,388.374268 281.620667,388.656311 
	C278.329681,384.442322 275.038696,380.228302 271.747681,376.014313 
	C271.224121,376.102509 270.700531,376.190704 270.176971,376.278870 
	C270.482697,380.029907 270.788452,383.780914 271.110077,387.726746 
	C270.494995,387.726746 268.455139,387.726746 266.446930,387.726746 
	C268.839355,384.026520 268.843567,373.394348 266.236725,369.795502 
z"/>
<path fill="#283139" opacity="1.000000" stroke="none" 
	d="
M371.144226,378.058929 
	C372.566315,370.679230 375.302948,368.287903 381.310303,368.780579 
	C386.021729,369.166992 388.844971,372.250092 389.173523,377.367462 
	C389.575745,383.632324 386.741943,387.610382 381.504395,388.133392 
	C375.149231,388.767975 372.181671,386.001648 371.144226,378.058929 
M382.084412,370.927277 
	C380.452789,371.292755 377.449371,371.538269 377.405273,372.042572 
	C377.032440,376.306061 376.463531,380.798157 377.461578,384.850159 
	C378.137390,387.594055 383.438751,386.820862 383.778778,383.709167 
	C384.220093,379.670715 383.211456,375.473785 382.084412,370.927277 
z"/>
<path fill="#2E373F" opacity="1.000000" stroke="none" 
	d="
M161.038742,381.474548 
	C163.129089,386.049133 163.129089,386.049133 168.566696,385.902893 
	C167.956039,383.551941 167.393265,381.385315 166.815811,379.162231 
	C168.944855,379.162231 171.548599,379.162231 174.475052,379.162231 
	C173.851898,380.216949 172.904083,381.066406 172.982315,381.807556 
	C173.636978,388.010162 169.728973,388.438171 165.192032,388.193573 
	C159.986130,387.912872 156.884888,385.087921 156.201630,379.987579 
	C155.543671,375.076172 157.997101,370.339661 162.311813,369.302429 
	C164.806030,368.702850 167.569870,368.955566 170.172150,369.220154 
	C171.088776,369.313385 172.475571,370.509766 172.578323,371.335571 
	C172.690308,372.235443 171.560791,373.289825 171.532974,373.336487 
	C168.476578,372.324432 165.575989,370.411774 164.334991,371.180054 
	C162.550522,372.284698 161.823914,375.283966 160.951614,377.590210 
	C160.571976,378.593872 160.951889,379.884857 161.038742,381.474548 
z"/>
<path fill="#252E36" opacity="1.000000" stroke="none" 
	d="
M234.255096,368.760529 
	C235.958618,368.871704 237.368423,368.763489 238.576263,369.206268 
	C239.547150,369.562164 240.869415,370.524170 240.951736,371.328247 
	C241.046600,372.254517 239.950211,373.302765 238.980438,372.605164 
	C236.673065,372.105927 233.650101,370.439911 232.195908,371.331818 
	C228.234024,373.761627 228.840912,378.152191 229.729156,382.129028 
	C230.537964,385.750244 232.985367,386.810089 237.223053,385.827515 
	C236.661667,383.637665 236.137894,381.594482 235.557556,379.330750 
	C237.662979,379.330750 240.169952,379.330750 242.991455,379.330750 
	C242.382080,380.171021 241.623978,380.839050 241.338898,381.669495 
	C239.158875,388.019745 237.904480,388.937683 232.258392,388.060120 
	C227.746582,387.358887 225.106583,384.302948 224.825027,379.455688 
	C224.479828,373.512421 226.845428,370.201813 232.382721,368.913666 
	C232.864227,368.801605 233.376297,368.820862 234.255096,368.760529 
z"/>
<path fill="#29333B" opacity="1.000000" stroke="none" 
	d="
M116.572914,386.789368 
	C114.852654,387.478729 112.839417,387.910553 110.938248,388.318329 
	C112.953331,383.332336 114.623375,378.752655 116.667038,374.346252 
	C117.585960,372.364929 119.251274,370.729767 120.577896,368.937531 
	C121.761902,370.678833 123.242722,372.290619 124.070427,374.187408 
	C126.012215,378.637299 127.641479,383.223572 129.423767,387.823059 
	C127.247772,387.823059 124.681610,387.823059 121.726639,387.823059 
	C125.524719,383.251312 122.075775,381.793854 117.279297,379.962677 
	C116.942093,382.179260 116.611015,384.355499 116.572914,386.789368 
z"/>
<path fill="#29333B" opacity="1.000000" stroke="none" 
	d="
M333.928619,386.355347 
	C332.582092,387.216827 330.890289,387.905426 329.125092,388.623871 
	C331.284790,382.891418 333.094116,377.751129 335.192566,372.731720 
	C335.795959,371.288422 337.233337,370.193756 338.288330,368.939240 
	C339.449158,370.269714 341.047516,371.418488 341.689484,372.964417 
	C343.681763,377.762207 345.310699,382.710815 347.109985,387.682068 
	C345.230682,387.682068 342.580902,387.682068 339.934357,387.682068 
	C342.343109,383.754761 342.102509,383.216461 335.644287,379.700012 
	C334.919769,381.978912 334.251556,384.080688 333.928619,386.355347 
z"/>
<path fill="#2B343C" opacity="1.000000" stroke="none" 
	d="
M204.025269,375.819336 
	C204.983429,376.274078 205.574066,376.574524 206.181702,376.835449 
	C209.729904,378.359131 212.330917,380.501831 210.485809,384.806976 
	C209.084473,388.076752 202.789261,389.492371 199.494171,387.358917 
	C196.858231,385.652191 196.944443,383.849640 200.077591,381.690399 
	C200.319382,382.204315 200.417908,382.746887 200.741714,383.043365 
	C202.046021,384.237579 203.332413,385.508270 204.841568,386.373810 
	C205.144608,386.547638 207.174438,384.579803 207.084015,384.436859 
	C206.125595,382.921448 205.015137,381.451172 203.703857,380.228790 
	C202.894745,379.474548 201.270447,379.436462 200.711014,378.606049 
	C199.593536,376.947296 198.052750,374.784393 198.375336,373.166290 
	C198.699509,371.540192 200.905975,369.479797 202.596802,369.137573 
	C204.781479,368.695435 207.293076,369.699005 209.586258,370.352509 
	C209.735489,370.395020 209.221970,372.763092 209.114319,373.437714 
	C206.341934,372.471954 204.413361,371.800110 202.484787,371.128296 
	C202.878387,372.634460 203.271988,374.140594 204.025269,375.819336 
z"/>
<path fill="#212B33" opacity="1.000000" stroke="none" 
	d="
M254.986694,388.025146 
	C252.045395,388.025146 249.567154,388.025146 246.924149,388.025146 
	C249.688004,384.186310 249.775040,373.246429 247.169525,369.060547 
	C251.709900,369.060547 256.181244,369.060547 260.987793,369.060547 
	C260.987793,370.599945 260.987793,372.114410 260.987793,373.121033 
	C258.739990,372.131409 256.429626,371.114288 253.402557,369.781586 
	C253.402557,375.965118 253.402557,380.724915 253.402557,386.736511 
	C256.335388,385.865387 258.998901,385.074249 261.969360,384.191956 
	C261.993408,384.659973 262.069183,386.134674 262.166321,388.025146 
	C259.671997,388.025146 257.560883,388.025146 254.986694,388.025146 
z"/>
<path fill="#343D45" opacity="1.000000" stroke="none" 
	d="
M193.100189,383.176117 
	C193.637024,384.679504 193.757355,386.106140 193.922699,388.066315 
	C190.864365,388.066315 188.239349,388.066345 185.614319,388.066345 
	C183.162720,388.066345 180.711105,388.066315 177.946198,388.066315 
	C181.229630,383.901215 181.253464,372.998047 178.057602,369.198303 
	C182.987839,369.198303 187.677917,369.198303 192.674805,369.198303 
	C192.674805,370.720825 192.674805,372.235077 192.674805,373.343903 
	C190.381546,372.274719 188.080582,371.201935 185.317505,369.913696 
	C185.317505,375.940826 185.317505,380.700500 185.317505,385.837006 
	C188.246597,386.763763 190.991974,386.627991 193.100189,383.176117 
z"/>
<path fill="#2B343C" opacity="1.000000" stroke="none" 
	d="
M303.504791,373.239990 
	C301.129456,372.406006 298.920685,371.206818 296.249786,369.756744 
	C296.249786,375.959167 296.249786,380.828217 296.249786,386.802582 
	C298.919312,385.840424 301.464874,384.922974 304.131134,383.961975 
	C304.131134,384.644226 304.131134,386.119659 304.131134,387.825867 
	C299.086456,387.825867 294.162476,387.825867 289.176849,387.825867 
	C291.904175,383.928528 291.919830,372.992523 288.945251,368.927582 
	C292.846497,368.927582 296.457001,369.140503 300.029816,368.864807 
	C303.287537,368.613403 304.224213,369.932831 303.504791,373.239990 
z"/>
<path fill="#252E36" opacity="1.000000" stroke="none" 
	d="
M356.810791,371.402588 
	C354.843994,371.770660 353.054077,372.565430 351.145386,373.412964 
	C351.145386,372.322815 351.145386,370.808350 351.145386,369.140656 
	C356.594635,369.140656 361.861877,369.140656 367.357422,369.140656 
	C367.357422,370.841034 367.357422,372.338196 367.357422,375.233002 
	C366.117584,373.212189 365.774231,371.926941 365.014374,371.594940 
	C364.031403,371.165497 362.257538,371.009552 361.633728,371.596375 
	C360.057709,373.079041 361.790894,385.561035 363.822571,387.749451 
	C360.852112,387.749451 358.132904,387.749451 356.501007,387.749451 
	C356.661102,382.512482 356.824402,377.170868 356.810791,371.402588 
z"/>
<path fill="#656C72" opacity="1.000000" stroke="none" 
	d="
M301.562408,377.741577 
	C301.648865,378.036621 301.768768,378.328186 301.800079,378.628967 
	C301.808807,378.712524 301.554840,378.823425 301.276428,378.565735 
	C301.275146,378.053619 301.418762,377.897614 301.562408,377.741577 
z"/>
<path fill="#2B343C" opacity="1.000000" stroke="none" 
	d="
M301.130402,377.531433 
	C301.418762,377.897614 301.275146,378.053619 301.034424,378.512573 
	C300.597900,378.634155 300.258484,378.452789 299.919037,378.271423 
	C300.178833,377.954712 300.438599,377.638000 301.130402,377.531433 
z"/>
<path fill="#FDFEFE" opacity="1.000000" stroke="none" 
	d="
M238.766937,303.040466 
	C231.520767,306.112396 225.009079,304.001404 218.635635,301.473785 
	C211.238953,298.540253 204.098236,294.904968 196.586594,292.333160 
	C188.807220,289.669739 180.716553,287.915497 172.271408,285.630859 
	C172.271408,273.296234 172.271408,260.036652 172.271408,246.300659 
	C189.821960,240.692596 206.714096,242.924133 222.849609,251.731384 
	C232.826813,257.177216 241.120819,264.515686 245.915894,275.110504 
	C250.875626,286.069183 248.138855,296.916565 238.766937,303.040466 
z"/>
<path fill="#FEFEFE" opacity="1.000000" stroke="none" 
	d="
M186.886581,154.887695 
	C188.400223,153.818085 189.750626,153.080185 190.799988,152.038895 
	C199.192001,143.711349 208.470047,146.231339 217.487991,150.256729 
	C225.356766,153.769150 229.316269,161.666641 226.286194,169.680908 
	C223.525269,176.983292 219.981186,184.756271 214.604080,190.150574 
	C201.550354,203.246002 187.229691,215.078552 173.419479,227.419922 
	C172.946564,227.061127 172.473663,226.702332 172.000748,226.343536 
	C172.000748,217.266068 172.000824,208.188583 172.000732,199.111115 
	C172.000641,189.126495 171.854080,179.137848 172.128586,169.160782 
	C172.181015,167.255615 173.453064,164.880447 174.928726,163.617432 
	C178.577148,160.494766 182.669769,157.891098 186.886581,154.887695 
z"/>
<path fill="#F0F1F2" opacity="1.000000" stroke="none" 
	d="
M99.575760,378.978302 
	C100.859100,380.649109 102.234581,382.276459 102.349533,383.988495 
	C102.405945,384.828522 100.123611,385.825623 98.899712,386.751617 
	C98.390511,386.416321 97.881317,386.081055 97.372116,385.745758 
	C97.964272,383.487091 98.556419,381.228424 99.575760,378.978302 
z"/>
<path fill="#F0F1F2" opacity="1.000000" stroke="none" 
	d="
M314.956848,373.074097 
	C315.952271,372.053497 316.945740,371.484589 317.939178,370.915649 
	C318.498016,372.328217 319.745270,373.920380 319.435852,375.106415 
	C319.075226,376.488770 317.353424,377.516022 316.222290,378.697357 
	C315.799805,378.426300 315.377350,378.155243 314.954895,377.884186 
	C314.954895,376.431396 314.954895,374.978607 314.956848,373.074097 
z"/>
<path fill="#F7F8F8" opacity="1.000000" stroke="none" 
	d="
M142.416672,386.033813 
	C141.264954,385.501373 140.181961,385.023071 139.911850,384.257812 
	C139.549088,383.230072 139.811081,381.980682 139.810471,380.826447 
	C139.808731,377.561615 139.809860,374.296783 139.809860,371.031921 
	C140.305069,370.674408 140.800278,370.316895 141.295486,369.959381 
	C142.929749,371.526703 145.408508,372.819672 146.025208,374.717651 
	C147.373535,378.867401 147.481461,383.236938 142.416672,386.033813 
z"/>
<path fill="#F0F1F2" opacity="1.000000" stroke="none" 
	d="
M403.419128,377.725647 
	C396.863800,377.645599 401.633423,373.243011 399.963196,371.082458 
	C405.241028,371.054901 405.875458,372.281464 403.419128,377.725647 
z"/>
<path fill="#F5F5F6" opacity="1.000000" stroke="none" 
	d="
M382.455688,371.136169 
	C383.211456,375.473785 384.220093,379.670715 383.778778,383.709167 
	C383.438751,386.820862 378.137390,387.594055 377.461578,384.850159 
	C376.463531,380.798157 377.032440,376.306061 377.405273,372.042572 
	C377.449371,371.538269 380.452789,371.292755 382.455688,371.136169 
z"/>
</svg>