<svg version="1.1" id="Layer_1" xmlns="http://www.w3.org/2000/svg" xmlns:xlink="http://www.w3.org/1999/xlink" x="0px" y="0px"
	 width="100%" viewBox="0 0 500 500" enable-background="new 0 0 500 500" xml:space="preserve">
<path fill="#151F28" opacity="1.000000" stroke="none" 
	d="
M301.000000,501.000000 
	C200.666687,501.000000 100.833382,501.000000 1.000054,501.000000 
	C1.000036,334.333405 1.000036,167.666794 1.000018,1.000143 
	C167.666565,1.000095 334.333130,1.000095 500.999756,1.000048 
	C500.999847,167.666519 500.999847,334.333038 500.999939,500.999786 
	C434.500000,501.000000 368.000000,501.000000 301.000000,501.000000 
M300.592651,377.495544 
	C300.712616,377.943451 300.832550,378.391327 301.429993,378.819397 
	C301.541931,378.705475 301.767548,378.558228 301.745636,378.483551 
	C301.663055,378.202026 301.500000,377.944092 300.592651,377.495544 
M158.102509,371.003021 
	C155.031509,371.017334 151.960495,371.031647 148.193680,370.742035 
	C143.429230,370.185425 138.665543,369.621277 133.893433,369.140778 
	C133.818588,369.133240 133.640152,370.154358 132.874741,371.188660 
	C132.079727,373.088593 131.284729,374.988525 130.442032,377.002441 
	C127.571053,374.294281 125.293564,372.145935 122.463264,369.496796 
	C119.647957,368.033051 118.288765,369.284088 117.331421,371.967560 
	C115.427185,377.305176 113.325905,382.572479 111.324722,387.819824 
	C112.796585,387.819824 114.702148,387.819824 115.903671,387.819824 
	C116.036171,385.782104 115.589668,383.065216 116.372322,382.646576 
	C117.908623,381.824982 120.628662,381.555328 121.911034,382.436584 
	C122.971024,383.165009 122.666771,385.878632 123.017036,388.018280 
	C125.104637,388.018280 127.576584,388.018280 130.805954,388.015594 
	C131.563278,388.000244 132.320618,387.984863 133.805603,388.039581 
	C134.533646,388.091339 135.261673,388.143127 136.220230,388.859741 
	C138.353745,390.383209 140.390060,391.072296 142.731369,388.047516 
	C144.706589,387.318359 146.681808,386.589233 149.487625,385.912750 
	C152.993912,386.274506 156.500183,386.636261 160.799698,387.193176 
	C164.763916,387.081146 168.728149,386.969116 173.561584,386.927124 
	C175.013855,386.952698 176.466125,386.978271 178.370758,387.753662 
	C183.501419,387.799622 188.632095,387.845612 194.717209,387.946686 
	C196.305893,387.873322 197.894577,387.799957 200.292068,387.877228 
	C201.278412,387.980927 202.262527,388.137115 203.251480,388.178802 
	C206.632782,388.321411 209.727158,387.586090 210.805038,383.951172 
	C211.951126,380.086243 209.245102,378.404541 206.309418,376.747040 
	C204.627090,375.797180 203.353378,374.090576 202.027527,372.606842 
	C201.924698,372.491791 203.144547,370.855225 203.279129,370.918976 
	C205.023468,371.745361 206.682510,372.751770 208.714615,373.913788 
	C210.860718,371.800934 210.658066,369.694031 207.566956,369.214996 
	C204.981415,368.814392 202.174789,369.840424 198.566620,370.121674 
	C196.759842,370.077087 194.953064,370.032532 192.606247,369.300873 
	C188.343506,369.178741 184.080658,369.005829 179.818207,369.014832 
	C179.402557,369.015686 178.989273,370.138397 177.777222,370.912354 
	C176.204041,371.273438 174.630859,371.634521 172.771545,371.284393 
	C168.855637,367.867310 164.789886,367.770874 158.102509,371.003021 
M242.036880,386.012421 
	C243.432175,386.441406 244.827484,386.870422 246.880875,387.743164 
	C251.819656,387.743164 256.758423,387.743164 261.751617,387.743164 
	C261.751617,386.130035 261.751617,384.689178 261.751617,384.124756 
	C259.027344,384.982483 256.481354,385.784058 253.551117,386.706604 
	C253.551117,380.635803 253.551117,375.906311 253.551117,369.858429 
	C256.576172,371.237823 258.793121,372.248718 261.341309,373.410675 
	C261.268036,372.047302 261.188568,370.569183 261.080902,368.565765 
	C255.732162,368.970337 250.981750,369.329651 246.024063,370.486420 
	C245.411331,372.569427 244.798584,374.652435 244.185852,376.735443 
	C243.719498,377.024109 243.253159,377.312744 242.786804,377.601410 
	C241.961594,376.292877 241.136398,374.984344 240.740173,373.025848 
	C241.871872,369.835938 239.570801,369.364929 237.401978,368.925903 
	C232.219986,367.876862 227.799026,369.659302 225.831192,373.500763 
	C223.824326,377.418488 224.652527,383.325500 227.579193,385.967957 
	C230.876816,388.945404 236.973343,388.968353 242.036880,386.012421 
M110.380310,353.102417 
	C113.501251,355.771973 116.622192,358.441559 120.431931,361.700317 
	C121.675224,360.078552 122.635689,358.711761 123.710648,357.441864 
	C131.322174,348.450104 141.367020,346.632690 152.248764,348.437256 
	C159.608353,349.657715 166.767761,352.050598 174.109192,353.424988 
	C181.421371,354.793915 188.901688,356.683380 196.215591,356.344421 
	C214.376785,355.502686 229.921234,347.401855 243.138367,335.411469 
	C262.757446,317.613434 281.842041,299.225128 301.080139,281.009918 
	C303.278412,278.928558 305.174988,278.204224 308.455688,278.588287 
	C323.012115,280.292480 336.567352,277.211639 348.573883,268.451324 
	C350.413635,267.108978 352.164001,265.644073 353.160156,264.861115 
	C359.428711,269.931061 365.231995,274.551056 370.944702,279.280487 
	C373.316162,281.243744 375.090759,280.746429 377.348633,278.880005 
	C390.699341,267.844025 404.172272,256.955902 417.602386,246.016022 
	C421.692688,242.684128 425.777740,239.345795 429.917114,235.968079 
	C423.853455,227.943298 418.151337,220.396988 412.273071,212.617538 
	C409.573944,214.461441 407.106110,216.147354 404.324493,218.047607 
	C403.332153,208.594574 403.322052,208.585648 408.885223,202.289688 
	C415.880585,194.372787 422.894592,186.472321 430.014252,178.436432 
	C423.054443,171.849167 416.449799,165.598022 409.818054,159.321243 
	C408.640228,160.350052 407.781799,160.916000 407.156769,161.674332 
	C400.974152,169.175461 393.131775,171.014328 383.819275,169.210861 
	C376.970154,167.884460 369.978851,167.284134 363.045502,166.402496 
	C344.904816,164.095764 344.903503,164.104843 332.157562,176.852570 
	C330.507965,178.502396 328.858643,180.152496 327.213104,181.806396 
	C321.489136,187.559525 315.766907,193.314407 309.809937,199.303970 
	C298.523560,182.208572 293.883850,163.989166 295.143555,144.341370 
	C295.585358,137.450027 297.986664,130.983154 303.404694,126.157028 
	C308.360779,121.742393 312.269043,121.686966 316.792603,126.550179 
	C322.231934,132.397903 327.245636,138.639725 332.501282,144.660553 
	C338.392303,151.409256 345.105957,157.007980 353.992981,159.386566 
	C359.230438,160.788361 363.949097,160.958893 369.020752,157.535553 
	C381.421112,149.165375 394.312927,141.523605 407.002594,133.581680 
	C410.325195,131.502228 413.631897,129.397339 417.096375,127.209084 
	C411.933258,118.724686 407.050995,110.701836 402.098267,102.563156 
	C400.559875,103.374115 399.538147,103.895302 398.532349,104.445671 
	C390.523468,108.828209 390.543671,108.813950 384.768036,101.829468 
	C379.675690,95.671333 374.847382,89.255455 369.347900,83.481651 
	C358.186462,71.763496 344.470093,67.518318 328.466064,70.567856 
	C312.638245,73.583817 299.328247,81.563507 287.047699,91.455254 
	C280.342102,96.856476 274.088257,102.818542 267.542175,108.605949 
	C258.656219,100.920120 248.433929,96.352783 237.056976,94.429497 
	C230.059830,93.246613 223.271667,92.962158 217.633408,98.787979 
	C215.003220,101.505661 211.594543,103.473457 208.522324,105.759087 
	C199.349213,112.583534 190.167984,119.397087 180.596466,126.507164 
	C175.558685,108.804115 163.792770,98.603203 147.298569,93.108849 
	C144.598846,92.209541 142.825500,92.574455 140.677872,94.402992 
	C126.727547,106.280586 112.654846,118.014450 98.619781,129.792480 
	C89.846443,137.154922 81.068848,144.512299 72.134384,152.005112 
	C77.704346,162.254456 83.068436,172.124969 88.451309,182.030045 
	C94.907814,178.411423 101.081810,174.951111 108.202103,170.960449 
	C108.512093,175.891434 108.950279,179.664383 108.955460,183.437912 
	C109.008026,221.766449 108.898972,260.095459 109.048492,298.423492 
	C109.092018,309.581451 106.486961,319.794006 100.426086,329.160858 
	C98.294899,332.454529 96.371758,335.882843 94.311485,339.319946 
	C99.739197,343.983337 104.785316,348.318909 110.380310,353.102417 
M93.962822,388.058533 
	C96.620827,388.022003 99.458794,388.548462 101.880959,387.774170 
	C103.887268,387.132874 106.824242,384.981781 106.850441,383.456696 
	C106.911270,379.915680 104.743683,376.503937 106.032959,372.578033 
	C106.232628,371.970032 103.174347,369.517883 101.395668,369.203705 
	C98.190819,368.637573 94.814224,369.043701 91.752098,369.043701 
	C93.679764,375.002289 94.510834,380.741547 91.902443,386.595673 
	C91.788704,386.851013 92.678085,387.553253 93.962822,388.058533 
M313.438660,388.038666 
	C314.813660,387.123169 316.188660,386.207672 318.280945,384.814606 
	C319.771606,385.594971 322.627899,387.090240 325.484161,388.585541 
	C325.678619,388.194794 325.873047,387.804016 326.067474,387.413269 
	C324.344177,384.836548 322.620911,382.259857 321.757629,380.969055 
	C322.626770,377.112518 324.477539,373.651093 323.465027,372.230499 
	C322.097870,370.312347 318.599884,369.645660 315.882935,369.040863 
	C313.676727,368.549805 311.274170,368.941132 309.052979,368.941132 
	C311.645935,375.386627 311.661407,381.524017 309.089539,387.856720 
	C310.032776,387.905457 311.326050,387.972260 313.438660,388.038666 
M398.386597,388.034271 
	C399.666840,387.965363 400.947083,387.896454 401.429779,387.870483 
	C400.995514,385.282745 400.581879,382.817963 400.168243,380.353180 
	C400.619659,380.204285 401.071075,380.055389 401.522491,379.906525 
	C404.583618,382.775055 404.794830,389.483246 411.378876,387.677887 
	C409.625244,384.944397 407.890045,382.239594 406.154816,379.534790 
	C406.602722,379.510590 407.050629,379.486389 407.498505,379.462189 
	C407.966217,376.903107 409.600952,373.625732 408.587128,371.978546 
	C407.480347,370.180298 403.987732,369.554077 401.410950,369.044281 
	C399.048340,368.576843 396.520386,368.945007 395.013062,368.945007 
	C395.013062,375.477173 395.013062,381.625580 395.013062,388.033691 
	C395.600922,388.033691 396.584869,388.033691 398.386597,388.034271 
M374.744598,370.186340 
	C373.535858,373.134796 371.461914,376.036896 371.301025,379.041443 
	C370.979828,385.040558 374.799347,388.331207 380.590851,388.172058 
	C386.029236,388.022583 389.097351,384.665131 389.201904,378.748718 
	C389.348450,370.460083 383.943634,366.964996 374.744598,370.186340 
M328.720184,386.949890 
	C330.640778,387.384888 332.561340,387.819916 333.807922,388.102264 
	C333.930817,385.773499 333.500244,383.235168 334.198456,382.873047 
	C335.772125,382.056732 338.358276,381.571411 339.670227,382.369263 
	C340.778137,383.042938 340.672119,385.712952 341.176361,387.801697 
	C342.823273,387.801697 345.226501,387.801697 347.364807,387.801697 
	C345.417328,382.593903 343.652191,377.475616 341.547668,372.500916 
	C340.955780,371.101837 339.367554,370.124207 338.236328,368.953278 
	C337.230164,370.082794 335.896454,371.057678 335.277039,372.369781 
	C333.101074,376.978821 331.170776,381.703796 328.720184,386.949890 
M280.993378,375.459320 
	C280.993378,377.104218 280.993378,378.749115 280.993378,380.552765 
	C275.117767,377.171295 275.436249,367.334503 267.123810,369.030212 
	C268.301208,375.490295 269.141937,381.547485 266.633118,387.830505 
	C268.354279,387.830505 270.301666,387.830505 271.037354,387.830505 
	C270.683136,383.678253 270.334198,379.588165 269.892914,374.415283 
	C275.480835,378.903687 276.840271,385.410950 282.629120,388.409851 
	C283.089905,381.490662 283.500488,375.324890 283.912750,369.134155 
	C283.004639,369.134155 281.219757,369.134155 279.648224,369.134155 
	C280.123260,371.072784 280.558746,372.850037 280.993378,375.459320 
M297.401611,386.079742 
	C296.704559,381.163879 296.007507,376.248016 295.310455,371.332153 
	C295.815491,371.005249 296.320557,370.678345 296.825592,370.351410 
	C298.917419,371.344055 301.009216,372.336670 303.338806,373.442139 
	C303.338806,372.223236 303.338806,370.773865 303.338806,369.199463 
	C298.524200,369.199463 293.995850,369.199463 290.262512,369.199463 
	C290.262512,375.570953 290.262512,381.657196 290.262512,387.704346 
	C294.424377,387.704346 299.319458,387.704346 304.605804,387.704346 
	C304.492645,385.971954 304.404480,384.622314 304.330536,383.490143 
	C302.069916,384.484955 300.182556,385.315521 297.401611,386.079742 
M367.674438,372.867432 
	C366.914581,371.563354 366.237488,369.198334 365.381104,369.131470 
	C360.656616,368.762909 355.888336,368.955200 350.823181,368.955200 
	C350.973358,370.972961 351.075043,372.339325 351.176178,373.698029 
	C352.962280,372.495148 354.482635,371.471252 357.252960,369.605499 
	C356.921906,376.746338 356.665680,382.273315 356.409393,387.801483 
	C358.238098,387.801483 360.841187,387.801483 361.985657,387.801483 
	C361.850311,382.511993 361.675385,377.420227 361.738037,372.331390 
	C361.740814,372.106293 363.961945,371.608856 365.055817,371.793854 
	C365.894318,371.935699 366.584503,372.954498 367.674438,372.867432 
z"/>
<path fill="#FBFBFB" opacity="1.000000" stroke="none" 
	d="
M110.105881,352.878448 
	C104.785316,348.318909 99.739197,343.983337 94.311485,339.319946 
	C96.371758,335.882843 98.294899,332.454529 100.426086,329.160858 
	C106.486961,319.794006 109.092018,309.581451 109.048492,298.423492 
	C108.898972,260.095459 109.008026,221.766449 108.955460,183.437912 
	C108.950279,179.664383 108.512093,175.891434 108.202103,170.960449 
	C101.081810,174.951111 94.907814,178.411423 88.451309,182.030045 
	C83.068436,172.124969 77.704346,162.254456 72.134384,152.005112 
	C81.068848,144.512299 89.846443,137.154922 98.619781,129.792480 
	C112.654846,118.014450 126.727547,106.280586 140.677872,94.402992 
	C142.825500,92.574455 144.598846,92.209541 147.298569,93.108849 
	C163.792770,98.603203 175.558685,108.804115 180.596466,126.507164 
	C190.167984,119.397087 199.349213,112.583534 208.522324,105.759087 
	C211.594543,103.473457 215.003220,101.505661 217.633408,98.787979 
	C223.271667,92.962158 230.059830,93.246613 237.056976,94.429497 
	C248.433929,96.352783 258.656219,100.920120 267.542175,108.605949 
	C274.088257,102.818542 280.342102,96.856476 287.047699,91.455254 
	C299.328247,81.563507 312.638245,73.583817 328.466064,70.567856 
	C344.470093,67.518318 358.186462,71.763496 369.347900,83.481651 
	C374.847382,89.255455 379.675690,95.671333 384.768036,101.829468 
	C390.543671,108.813950 390.523468,108.828209 398.532349,104.445671 
	C399.538147,103.895302 400.559875,103.374115 402.098267,102.563156 
	C407.050995,110.701836 411.933258,118.724686 417.096375,127.209084 
	C413.631897,129.397339 410.325195,131.502228 407.002594,133.581680 
	C394.312927,141.523605 381.421112,149.165375 369.020752,157.535553 
	C363.949097,160.958893 359.230438,160.788361 353.992981,159.386566 
	C345.105957,157.007980 338.392303,151.409256 332.501282,144.660553 
	C327.245636,138.639725 322.231934,132.397903 316.792603,126.550179 
	C312.269043,121.686966 308.360779,121.742393 303.404694,126.157028 
	C297.986664,130.983154 295.585358,137.450027 295.143555,144.341370 
	C293.883850,163.989166 298.523560,182.208572 309.809937,199.303970 
	C315.766907,193.314407 321.489136,187.559525 327.213104,181.806396 
	C328.858643,180.152496 330.507965,178.502396 332.157562,176.852570 
	C344.903503,164.104843 344.904816,164.095764 363.045502,166.402496 
	C369.978851,167.284134 376.970154,167.884460 383.819275,169.210861 
	C393.131775,171.014328 400.974152,169.175461 407.156769,161.674332 
	C407.781799,160.916000 408.640228,160.350052 409.818054,159.321243 
	C416.449799,165.598022 423.054443,171.849167 430.014252,178.436432 
	C422.894592,186.472321 415.880585,194.372787 408.885223,202.289688 
	C403.322052,208.585648 403.332153,208.594574 404.324493,218.047607 
	C407.106110,216.147354 409.573944,214.461441 412.273071,212.617538 
	C418.151337,220.396988 423.853455,227.943298 429.917114,235.968079 
	C425.777740,239.345795 421.692688,242.684128 417.602386,246.016022 
	C404.172272,256.955902 390.699341,267.844025 377.348633,278.880005 
	C375.090759,280.746429 373.316162,281.243744 370.944702,279.280487 
	C365.231995,274.551056 359.428711,269.931061 353.160156,264.861115 
	C352.164001,265.644073 350.413635,267.108978 348.573883,268.451324 
	C336.567352,277.211639 323.012115,280.292480 308.455688,278.588287 
	C305.174988,278.204224 303.278412,278.928558 301.080139,281.009918 
	C281.842041,299.225128 262.757446,317.613434 243.138367,335.411469 
	C229.921234,347.401855 214.376785,355.502686 196.215591,356.344421 
	C188.901688,356.683380 181.421371,354.793915 174.109192,353.424988 
	C166.767761,352.050598 159.608353,349.657715 152.248764,348.437256 
	C141.367020,346.632690 131.322174,348.450104 123.710648,357.441864 
	C122.635689,358.711761 121.675224,360.078552 120.431931,361.700317 
	C116.622192,358.441559 113.501251,355.771973 110.105881,352.878448 
M142.156906,109.381790 
	C124.053429,124.536995 105.949951,139.692200 87.637199,155.022598 
	C89.570496,158.548767 91.361015,161.814545 92.923279,164.663971 
	C97.202042,162.838196 100.902565,160.907791 104.821152,159.664871 
	C111.647186,157.499725 116.866440,159.974976 118.879059,166.870392 
	C120.300972,171.741974 121.007126,176.991165 121.028748,182.076035 
	C121.197327,221.721054 121.138611,261.367126 121.093307,301.012817 
	C121.089523,304.327972 121.271881,307.826080 120.328781,310.922729 
	C117.653358,319.707367 114.438942,328.327850 111.208046,337.674652 
	C113.201813,339.372192 116.084335,341.826416 118.998383,344.307495 
	C128.663773,337.282501 139.184631,334.168243 150.703812,336.017303 
	C159.043320,337.355988 167.195389,339.833344 175.517639,341.317322 
	C182.818542,342.619171 190.339478,344.491211 197.587433,343.911926 
	C212.863113,342.691101 225.698029,335.133392 236.787903,324.872772 
	C252.925293,309.942108 268.795654,294.722748 284.774811,279.621155 
	C286.668793,277.831207 288.530945,276.007568 290.631439,273.984161 
	C261.091125,258.569092 244.841248,233.366150 237.375504,202.789200 
	C229.657349,171.178482 238.023193,142.571136 259.642487,118.123352 
	C251.403931,110.724251 242.197205,107.259354 232.082520,106.169846 
	C230.193222,105.966339 227.821014,106.796516 226.223083,107.928238 
	C218.891739,113.120613 211.758530,118.592560 204.549896,123.958389 
	C193.792313,131.965912 183.031113,139.968597 171.566833,148.497559 
	C171.311111,145.540909 171.177460,143.441635 170.941254,141.353958 
	C169.320145,127.025711 165.081726,114.362083 150.534927,107.783859 
	C147.381958,106.358055 145.022446,106.181259 142.156906,109.381790 
M251.857422,215.583023 
	C258.034607,230.965591 266.859497,244.478546 279.584961,255.313431 
	C301.140106,273.666138 333.324860,275.799194 353.965637,249.974426 
	C354.626984,249.146927 355.549713,248.528381 356.524872,247.656631 
	C360.263275,256.625702 364.962219,264.319580 373.556366,269.163391 
	C387.861298,257.528687 402.033630,246.001862 416.466614,234.263031 
	C414.296112,231.419800 412.403290,228.940308 410.431427,226.357269 
	C408.274536,227.405807 406.364471,228.377792 404.418213,229.270798 
	C401.115479,230.786224 397.919678,230.028305 397.032166,226.659134 
	C395.307770,220.112625 393.607758,213.339310 393.605133,206.659286 
	C393.603943,203.644241 397.527618,200.484940 399.962311,197.640823 
	C405.329742,191.370773 410.882416,185.259277 415.499756,180.052536 
	C413.395142,177.156647 411.735962,174.873657 410.163116,172.709427 
	C398.895752,179.802780 396.827698,180.375534 383.779572,179.025620 
	C377.326996,178.358047 370.873077,177.513184 364.498383,176.326172 
	C353.798645,174.333755 344.845856,175.282379 337.307922,185.028885 
	C330.569611,193.741440 321.764130,200.855270 314.448364,208.102386 
	C316.775970,210.930710 318.627228,213.180176 320.460266,215.407562 
	C331.064392,206.795288 341.998505,212.069122 352.996521,212.734390 
	C352.996521,216.077103 352.997040,218.733627 352.996429,221.390152 
	C352.994904,228.320145 349.303619,232.669632 342.289948,232.798752 
	C338.598480,232.866699 334.638031,232.002197 331.217590,230.563614 
	C320.712341,226.145309 312.285309,218.947067 305.374603,209.895035 
	C293.756226,194.676697 287.020782,177.504196 285.221375,158.516769 
	C284.009308,145.726913 284.561249,133.163239 293.468658,122.549744 
	C303.979950,110.025169 314.901398,109.612099 325.863525,121.679680 
	C330.340454,126.608109 334.051910,132.287247 338.840698,136.861588 
	C343.690765,141.494431 349.251892,145.472168 354.871429,149.175613 
	C358.072449,151.285172 361.638000,150.634491 365.093201,148.293869 
	C371.980927,143.627975 379.164398,139.398956 386.220886,134.981812 
	C391.964661,131.386383 397.701477,127.779793 403.748688,123.985321 
	C401.912720,121.012421 400.368866,118.512543 398.651123,115.731094 
	C389.695404,120.062279 383.475067,115.816399 378.130402,109.347092 
	C374.100800,104.469521 370.421143,99.302872 366.391235,94.425583 
	C359.472321,86.051750 351.088135,79.466789 339.820526,79.601250 
	C332.838409,79.684570 325.483917,81.075325 318.990997,83.638374 
	C298.326111,91.795738 282.630615,106.756248 268.144806,123.060211 
	C243.972015,150.267014 238.113632,180.836960 251.857422,215.583023 
z"/>
<path fill="#182631" opacity="1.000000" stroke="none" 
	d="
M199.483261,387.726593 
	C197.894577,387.799957 196.305893,387.873322 194.269135,387.530457 
	C193.708481,385.820801 193.595901,384.527344 193.557098,384.081390 
	C190.617950,385.026337 188.167831,385.814056 185.314545,386.731384 
	C185.314545,380.710236 185.314545,375.896637 185.314545,369.883606 
	C188.226349,371.281311 190.324219,372.288330 192.570816,373.366730 
	C192.726761,372.451111 192.936523,371.219543 193.146271,369.987976 
	C194.953064,370.032532 196.759842,370.077087 198.846970,370.516510 
	C196.115738,376.599731 200.076309,378.452576 204.172348,380.504700 
	C205.431244,381.135406 206.372894,382.687561 207.031570,384.028137 
	C207.199005,384.368927 205.455185,386.292542 205.056168,386.153168 
	C203.562897,385.631531 202.226883,384.606506 200.910538,383.660767 
	C200.454269,383.332977 200.226700,382.686829 199.809479,382.057648 
	C196.615677,384.048340 197.706055,385.876801 199.483261,387.726593 
z"/>
<path fill="#182632" opacity="1.000000" stroke="none" 
	d="
M173.057678,371.995605 
	C174.630859,371.634521 176.204041,371.273438 178.577942,370.910583 
	C179.666809,375.307648 180.100571,379.705536 180.128784,384.106049 
	C180.134949,385.067200 178.693268,386.037659 177.918396,387.003845 
	C176.466125,386.978271 175.013855,386.952698 173.150452,386.469360 
	C172.988480,383.789642 173.237640,381.567688 173.487885,379.335999 
	C171.270477,379.335999 168.934616,379.335999 167.064255,379.335999 
	C167.489349,381.655060 167.866150,383.710693 168.242447,385.763519 
	C163.984207,386.727264 161.349335,385.216522 161.307434,381.982910 
	C161.261383,378.430084 162.504395,374.822021 163.593887,371.366730 
	C163.680237,371.092834 167.893524,371.195740 168.565475,372.204681 
	C170.568161,375.211761 171.651581,373.554260 173.057678,371.995605 
z"/>
<path fill="#7A95AE" opacity="1.000000" stroke="none" 
	d="
M93.531509,388.052917 
	C92.678085,387.553253 91.788704,386.851013 91.902443,386.595673 
	C94.510834,380.741547 93.679764,375.002289 91.752098,369.043701 
	C94.814224,369.043701 98.190819,368.637573 101.395668,369.203705 
	C103.174347,369.517883 106.232628,371.970032 106.032959,372.578033 
	C104.743683,376.503937 106.911270,379.915680 106.850441,383.456696 
	C106.824242,384.981781 103.887268,387.132874 101.880959,387.774170 
	C99.458794,388.548462 96.620827,388.022003 93.531509,388.052917 
M102.691162,383.355835 
	C102.718872,380.472260 101.873772,378.514801 98.191406,379.306305 
	C98.191406,381.506012 98.191406,383.681885 98.191406,387.047394 
	C100.152618,385.715515 101.320000,384.922760 102.691162,383.355835 
z"/>
<path fill="#192733" opacity="1.000000" stroke="none" 
	d="
M240.311188,373.675812 
	C241.136398,374.984344 241.961594,376.292877 242.786804,377.601410 
	C243.253159,377.312744 243.719498,377.024109 244.185852,376.735443 
	C244.798584,374.652435 245.411331,372.569427 246.483643,370.256104 
	C249.274460,372.493286 249.983948,383.834534 247.900116,386.313324 
	C247.506699,386.781311 246.790192,386.977692 246.222778,387.299408 
	C244.827484,386.870422 243.432175,386.441406 241.577393,385.617157 
	C241.463120,383.231934 241.808365,381.241974 242.171143,379.150818 
	C240.103394,379.150818 237.810791,379.150818 235.788116,379.150818 
	C236.190262,381.427216 236.577988,383.621887 236.990677,385.957886 
	C230.221649,386.004089 227.301682,380.329315 229.912354,373.915771 
	C231.461197,370.110809 234.619537,369.557831 237.613190,372.442566 
	C238.284897,373.089874 239.400131,373.276886 240.311188,373.675812 
z"/>
<path fill="#809CB5" opacity="1.000000" stroke="none" 
	d="
M313.028992,388.038879 
	C311.326050,387.972260 310.032776,387.905457 309.089539,387.856720 
	C311.661407,381.524017 311.645935,375.386627 309.052979,368.941132 
	C311.274170,368.941132 313.676727,368.549805 315.882935,369.040863 
	C318.599884,369.645660 322.097870,370.312347 323.465027,372.230499 
	C324.477539,373.651093 322.626770,377.112518 321.757629,380.969055 
	C322.620911,382.259857 324.344177,384.836548 326.067474,387.413269 
	C325.873047,387.804016 325.678619,388.194794 325.484161,388.585541 
	C322.627899,387.090240 319.771606,385.594971 318.280945,384.814606 
	C316.188660,386.207672 314.813660,387.123169 313.028992,388.038879 
M314.977692,373.591034 
	C315.063599,374.999695 315.149536,376.408325 315.235443,377.816986 
	C315.672638,378.073517 316.109863,378.330078 316.547058,378.586609 
	C317.575439,377.352570 319.087433,376.250732 319.472778,374.840912 
	C319.759583,373.791565 318.587433,372.343506 318.065033,371.072968 
	C317.043152,371.622711 316.021271,372.172455 314.977692,373.591034 
z"/>
<path fill="#7B97AF" opacity="1.000000" stroke="none" 
	d="
M133.510056,370.695435 
	C133.640152,370.154358 133.818588,369.133240 133.893433,369.140778 
	C138.665543,369.621277 143.429230,370.185425 148.703094,371.241669 
	C152.353333,376.578430 151.686554,381.265747 148.657028,385.860107 
	C146.681808,386.589233 144.706589,387.318359 141.943497,388.056976 
	C139.433655,388.109253 137.711685,388.152069 135.989716,388.194885 
	C135.261673,388.143127 134.533646,388.091339 133.507996,387.618103 
	C137.410583,382.850006 134.535461,377.511536 135.155655,372.665375 
	C135.229492,372.088379 134.088135,371.355865 133.510056,370.695435 
M140.383621,385.728607 
	C145.065018,385.632324 147.084503,382.987061 146.688751,377.469604 
	C146.325775,372.408844 144.647278,370.875031 139.984863,371.600708 
	C139.984863,376.020264 139.984863,380.481384 140.383621,385.728607 
z"/>
<path fill="#819DB6" opacity="1.000000" stroke="none" 
	d="
M397.977722,388.033997 
	C396.584869,388.033691 395.600922,388.033691 395.013062,388.033691 
	C395.013062,381.625580 395.013062,375.477173 395.013062,368.945007 
	C396.520386,368.945007 399.048340,368.576843 401.410950,369.044281 
	C403.987732,369.554077 407.480347,370.180298 408.587128,371.978546 
	C409.600952,373.625732 407.966217,376.903107 407.498505,379.462189 
	C407.050629,379.486389 406.602722,379.510590 406.154816,379.534790 
	C407.890045,382.239594 409.625244,384.944397 411.378876,387.677887 
	C404.794830,389.483246 404.583618,382.775055 401.522491,379.906525 
	C401.071075,380.055389 400.619659,380.204285 400.168243,380.353180 
	C400.581879,382.817963 400.995514,385.282745 401.429779,387.870483 
	C400.947083,387.896454 399.666840,387.965363 397.977722,388.033997 
M400.634460,377.705139 
	C403.877319,378.681396 405.170166,376.806366 404.767242,374.145905 
	C404.553131,372.732147 402.739624,371.560638 401.648071,370.279755 
	C401.173126,370.570526 400.698212,370.861298 400.223297,371.152069 
	C400.223297,373.092133 400.223297,375.032196 400.634460,377.705139 
z"/>
<path fill="#7E9AB2" opacity="1.000000" stroke="none" 
	d="
M375.075012,370.006653 
	C383.943634,366.964996 389.348450,370.460083 389.201904,378.748718 
	C389.097351,384.665131 386.029236,388.022583 380.590851,388.172058 
	C374.799347,388.331207 370.979828,385.040558 371.301025,379.041443 
	C371.461914,376.036896 373.535858,373.134796 375.075012,370.006653 
M378.046295,371.274780 
	C374.677032,374.994080 375.590729,379.351105 376.614807,383.495026 
	C376.899750,384.648102 379.069916,386.190552 380.204254,386.060730 
	C381.605316,385.900330 383.682465,384.364410 383.953613,383.098572 
	C384.558441,380.274689 384.510437,377.217834 384.191132,374.315033 
	C383.862488,371.327148 381.867493,370.059448 378.046295,371.274780 
z"/>
<path fill="#7C97AF" opacity="1.000000" stroke="none" 
	d="
M328.933716,386.667328 
	C331.170776,381.703796 333.101074,376.978821 335.277039,372.369781 
	C335.896454,371.057678 337.230164,370.082794 338.236328,368.953278 
	C339.367554,370.124207 340.955780,371.101837 341.547668,372.500916 
	C343.652191,377.475616 345.417328,382.593903 347.364807,387.801697 
	C345.226501,387.801697 342.823273,387.801697 341.176361,387.801697 
	C340.672119,385.712952 340.778137,383.042938 339.670227,382.369263 
	C338.358276,381.571411 335.772125,382.056732 334.198456,382.873047 
	C333.500244,383.235168 333.930817,385.773499 333.807922,388.102264 
	C332.561340,387.819916 330.640778,387.384888 328.933716,386.667328 
z"/>
<path fill="#7F9BB4" opacity="1.000000" stroke="none" 
	d="
M280.993805,375.043335 
	C280.558746,372.850037 280.123260,371.072784 279.648224,369.134155 
	C281.219757,369.134155 283.004639,369.134155 283.912750,369.134155 
	C283.500488,375.324890 283.089905,381.490662 282.629120,388.409851 
	C276.840271,385.410950 275.480835,378.903687 269.892914,374.415283 
	C270.334198,379.588165 270.683136,383.678253 271.037354,387.830505 
	C270.301666,387.830505 268.354279,387.830505 266.633118,387.830505 
	C269.141937,381.547485 268.301208,375.490295 267.123810,369.030212 
	C275.436249,367.334503 275.117767,377.171295 280.993378,380.552765 
	C280.993378,378.749115 280.993378,377.104218 280.993805,375.043335 
z"/>
<path fill="#7C97AF" opacity="1.000000" stroke="none" 
	d="
M130.048538,388.018280 
	C127.576584,388.018280 125.104637,388.018280 123.017036,388.018280 
	C122.666771,385.878632 122.971024,383.165009 121.911034,382.436584 
	C120.628662,381.555328 117.908623,381.824982 116.372322,382.646576 
	C115.589668,383.065216 116.036171,385.782104 115.903671,387.819824 
	C114.702148,387.819824 112.796585,387.819824 111.324722,387.819824 
	C113.325905,382.572479 115.427185,377.305176 117.331421,371.967560 
	C118.288765,369.284088 119.647957,368.033051 122.751060,370.125366 
	C125.375420,376.508728 127.711975,382.263489 130.048538,388.018280 
z"/>
<path fill="#7C97B0" opacity="1.000000" stroke="none" 
	d="
M172.914612,371.639984 
	C171.651581,373.554260 170.568161,375.211761 168.565475,372.204681 
	C167.893524,371.195740 163.680237,371.092834 163.593887,371.366730 
	C162.504395,374.822021 161.261383,378.430084 161.307434,381.982910 
	C161.349335,385.216522 163.984207,386.727264 168.242447,385.763519 
	C167.866150,383.710693 167.489349,381.655060 167.064255,379.335999 
	C168.934616,379.335999 171.270477,379.335999 173.487885,379.335999 
	C173.237640,381.567688 172.988480,383.789642 172.715851,386.434326 
	C168.728149,386.969116 164.763916,387.081146 160.210663,386.805969 
	C155.132492,381.236816 154.945221,377.357605 158.875076,370.954712 
	C164.789886,367.770874 168.855637,367.867310 172.914612,371.639984 
z"/>
<path fill="#809BB4" opacity="1.000000" stroke="none" 
	d="
M240.525681,373.350830 
	C239.400131,373.276886 238.284897,373.089874 237.613190,372.442566 
	C234.619537,369.557831 231.461197,370.110809 229.912354,373.915771 
	C227.301682,380.329315 230.221649,386.004089 236.990677,385.957886 
	C236.577988,383.621887 236.190262,381.427216 235.788116,379.150818 
	C237.810791,379.150818 240.103394,379.150818 242.171143,379.150818 
	C241.808365,381.241974 241.463120,383.231934 241.188324,385.620697 
	C236.973343,388.968353 230.876816,388.945404 227.579193,385.967957 
	C224.652527,383.325500 223.824326,377.418488 225.831192,373.500763 
	C227.799026,369.659302 232.219986,367.876862 237.401978,368.925903 
	C239.570801,369.364929 241.871872,369.835938 240.525681,373.350830 
z"/>
<path fill="#7A96AE" opacity="1.000000" stroke="none" 
	d="
M297.848389,386.112915 
	C300.182556,385.315521 302.069916,384.484955 304.330536,383.490143 
	C304.404480,384.622314 304.492645,385.971954 304.605804,387.704346 
	C299.319458,387.704346 294.424377,387.704346 290.262512,387.704346 
	C290.262512,381.657196 290.262512,375.570953 290.262512,369.199463 
	C293.995850,369.199463 298.524200,369.199463 303.338806,369.199463 
	C303.338806,370.773865 303.338806,372.223236 303.338806,373.442139 
	C301.009216,372.336670 298.917419,371.344055 296.825592,370.351410 
	C296.320557,370.678345 295.815491,371.005249 295.310455,371.332153 
	C296.007507,376.248016 296.704559,381.163879 297.848389,386.112915 
z"/>
<path fill="#7894AC" opacity="1.000000" stroke="none" 
	d="
M178.144577,387.378754 
	C178.693268,386.037659 180.134949,385.067200 180.128784,384.106049 
	C180.100571,379.705536 179.666809,375.307648 178.976776,370.824585 
	C178.989273,370.138397 179.402557,369.015686 179.818207,369.014832 
	C184.080658,369.005829 188.343506,369.178741 192.876251,369.644409 
	C192.936523,371.219543 192.726761,372.451111 192.570816,373.366730 
	C190.324219,372.288330 188.226349,371.281311 185.314545,369.883606 
	C185.314545,375.896637 185.314545,380.710236 185.314545,386.731384 
	C188.167831,385.814056 190.617950,385.026337 193.557098,384.081390 
	C193.595901,384.527344 193.708481,385.820801 193.791901,387.502930 
	C188.632095,387.845612 183.501419,387.799622 178.144577,387.378754 
z"/>
<path fill="#7D98B1" opacity="1.000000" stroke="none" 
	d="
M199.887665,387.801910 
	C197.706055,385.876801 196.615677,384.048340 199.809479,382.057648 
	C200.226700,382.686829 200.454269,383.332977 200.910538,383.660767 
	C202.226883,384.606506 203.562897,385.631531 205.056168,386.153168 
	C205.455185,386.292542 207.199005,384.368927 207.031570,384.028137 
	C206.372894,382.687561 205.431244,381.135406 204.172348,380.504700 
	C200.076309,378.452576 196.115738,376.599731 199.296692,370.573029 
	C202.174789,369.840424 204.981415,368.814392 207.566956,369.214996 
	C210.658066,369.694031 210.860718,371.800934 208.714615,373.913788 
	C206.682510,372.751770 205.023468,371.745361 203.279129,370.918976 
	C203.144547,370.855225 201.924698,372.491791 202.027527,372.606842 
	C203.353378,374.090576 204.627090,375.797180 206.309418,376.747040 
	C209.245102,378.404541 211.951126,380.086243 210.805038,383.951172 
	C209.727158,387.586090 206.632782,388.321411 203.251480,388.178802 
	C202.262527,388.137115 201.278412,387.980927 199.887665,387.801910 
z"/>
<path fill="#809CB4" opacity="1.000000" stroke="none" 
	d="
M367.507538,373.225342 
	C366.584503,372.954498 365.894318,371.935699 365.055817,371.793854 
	C363.961945,371.608856 361.740814,372.106293 361.738037,372.331390 
	C361.675385,377.420227 361.850311,382.511993 361.985657,387.801483 
	C360.841187,387.801483 358.238098,387.801483 356.409393,387.801483 
	C356.665680,382.273315 356.921906,376.746338 357.252960,369.605499 
	C354.482635,371.471252 352.962280,372.495148 351.176178,373.698029 
	C351.075043,372.339325 350.973358,370.972961 350.823181,368.955200 
	C355.888336,368.955200 360.656616,368.762909 365.381104,369.131470 
	C366.237488,369.198334 366.914581,371.563354 367.507538,373.225342 
z"/>
<path fill="#819CB5" opacity="1.000000" stroke="none" 
	d="
M246.551819,387.521301 
	C246.790192,386.977692 247.506699,386.781311 247.900116,386.313324 
	C249.983948,383.834534 249.274460,372.493286 246.587280,369.857391 
	C250.981750,369.329651 255.732162,368.970337 261.080902,368.565765 
	C261.188568,370.569183 261.268036,372.047302 261.341309,373.410675 
	C258.793121,372.248718 256.576172,371.237823 253.551117,369.858429 
	C253.551117,375.906311 253.551117,380.635803 253.551117,386.706604 
	C256.481354,385.784058 259.027344,384.982483 261.751617,384.124756 
	C261.751617,384.689178 261.751617,386.130035 261.751617,387.743164 
	C256.758423,387.743164 251.819656,387.743164 246.551819,387.521301 
z"/>
<path fill="#182632" opacity="1.000000" stroke="none" 
	d="
M130.427246,388.016937 
	C127.711975,382.263489 125.375420,376.508728 123.027466,370.375793 
	C125.293564,372.145935 127.571053,374.294281 130.442032,377.002441 
	C131.284729,374.988525 132.079727,373.088593 133.192398,370.942047 
	C134.088135,371.355865 135.229492,372.088379 135.155655,372.665375 
	C134.535461,377.511536 137.410583,382.850006 133.144165,387.583038 
	C132.320618,387.984863 131.563278,388.000244 130.427246,388.016937 
z"/>
<path fill="#182632" opacity="1.000000" stroke="none" 
	d="
M158.488800,370.978882 
	C154.945221,377.357605 155.132492,381.236816 159.814041,386.708374 
	C156.500183,386.636261 152.993912,386.274506 149.072327,385.886414 
	C151.686554,381.265747 152.353333,376.578430 149.050995,371.393616 
	C151.960495,371.031647 155.031509,371.017334 158.488800,370.978882 
z"/>
<path fill="#182632" opacity="1.000000" stroke="none" 
	d="
M136.104980,388.527313 
	C137.711685,388.152069 139.433655,388.109253 141.582733,388.125916 
	C140.390060,391.072296 138.353745,390.383209 136.104980,388.527313 
z"/>
<path fill="#5F7991" opacity="1.000000" stroke="none" 
	d="
M301.367096,377.677307 
	C301.500000,377.944092 301.663055,378.202026 301.745636,378.483551 
	C301.767548,378.558228 301.541931,378.705475 301.268738,378.529541 
	C301.194000,378.052216 301.280548,377.864777 301.367096,377.677307 
z"/>
<path fill="#7A96AE" opacity="1.000000" stroke="none" 
	d="
M300.979858,377.586426 
	C301.280548,377.864777 301.194000,378.052216 301.029968,378.539429 
	C300.832550,378.391327 300.712616,377.943451 300.979858,377.586426 
z"/>
<path fill="#162029" opacity="1.000000" stroke="none" 
	d="
M142.463486,109.148453 
	C145.022446,106.181259 147.381958,106.358055 150.534927,107.783859 
	C165.081726,114.362083 169.320145,127.025711 170.941254,141.353958 
	C171.177460,143.441635 171.311111,145.540909 171.566833,148.497559 
	C183.031113,139.968597 193.792313,131.965912 204.549896,123.958389 
	C211.758530,118.592560 218.891739,113.120613 226.223083,107.928238 
	C227.821014,106.796516 230.193222,105.966339 232.082520,106.169846 
	C242.197205,107.259354 251.403931,110.724251 259.642487,118.123352 
	C238.023193,142.571136 229.657349,171.178482 237.375504,202.789200 
	C244.841248,233.366150 261.091125,258.569092 290.631439,273.984161 
	C288.530945,276.007568 286.668793,277.831207 284.774811,279.621155 
	C268.795654,294.722748 252.925293,309.942108 236.787903,324.872772 
	C225.698029,335.133392 212.863113,342.691101 197.587433,343.911926 
	C190.339478,344.491211 182.818542,342.619171 175.517639,341.317322 
	C167.195389,339.833344 159.043320,337.355988 150.703812,336.017303 
	C139.184631,334.168243 128.663773,337.282501 118.998383,344.307495 
	C116.084335,341.826416 113.201813,339.372192 111.208046,337.674652 
	C114.438942,328.327850 117.653358,319.707367 120.328781,310.922729 
	C121.271881,307.826080 121.089523,304.327972 121.093307,301.012817 
	C121.138611,261.367126 121.197327,221.721054 121.028748,182.076035 
	C121.007126,176.991165 120.300972,171.741974 118.879059,166.870392 
	C116.866440,159.974976 111.647186,157.499725 104.821152,159.664871 
	C100.902565,160.907791 97.202042,162.838196 92.923279,164.663971 
	C91.361015,161.814545 89.570496,158.548767 87.637199,155.022598 
	C105.949951,139.692200 124.053429,124.536995 142.463486,109.148453 
M208.330719,297.085022 
	C213.723541,299.217987 219.006226,301.707642 224.530930,303.413513 
	C238.203186,307.635193 248.811584,299.580231 248.077652,285.267212 
	C247.848557,280.799316 246.291794,276.106934 244.233963,272.084595 
	C239.547546,262.924286 231.782135,256.575165 222.876648,251.731552 
	C206.721558,242.944946 189.836716,240.683624 172.258942,246.297150 
	C172.258942,260.014221 172.258942,273.277405 172.258942,286.121399 
	C178.570953,287.475311 184.659592,288.367004 190.477188,290.145386 
	C196.323349,291.932526 201.899643,294.602509 208.330719,297.085022 
M222.036682,180.456116 
	C223.346771,177.599258 224.980042,174.843307 225.909271,171.867523 
	C229.356018,160.829544 224.650223,151.881531 213.566162,148.569077 
	C205.605896,146.190155 197.923798,145.063095 190.871887,151.832825 
	C186.364609,156.159744 180.800629,159.430176 175.528046,162.896896 
	C172.902237,164.623398 171.844437,166.485168 171.905014,169.736465 
	C172.134369,182.045288 171.997437,194.360947 171.997498,206.674042 
	C171.997543,213.241898 171.997513,219.809753 171.997513,227.239807 
	C181.069214,220.091904 189.871445,214.063324 197.565170,206.852097 
	C206.126999,198.827179 213.679489,189.725372 222.036682,180.456116 
z"/>
<path fill="#BD9D24" opacity="1.000000" stroke="none" 
	d="
M251.710571,215.224731 
	C238.113632,180.836960 243.972015,150.267014 268.144806,123.060211 
	C282.630615,106.756248 298.326111,91.795738 318.990997,83.638374 
	C325.483917,81.075325 332.838409,79.684570 339.820526,79.601250 
	C351.088135,79.466789 359.472321,86.051750 366.391235,94.425583 
	C370.421143,99.302872 374.100800,104.469521 378.130402,109.347092 
	C383.475067,115.816399 389.695404,120.062279 398.651123,115.731094 
	C400.368866,118.512543 401.912720,121.012421 403.748688,123.985321 
	C397.701477,127.779793 391.964661,131.386383 386.220886,134.981812 
	C379.164398,139.398956 371.980927,143.627975 365.093201,148.293869 
	C361.638000,150.634491 358.072449,151.285172 354.871429,149.175613 
	C349.251892,145.472168 343.690765,141.494431 338.840698,136.861588 
	C334.051910,132.287247 330.340454,126.608109 325.863525,121.679680 
	C314.901398,109.612099 303.979950,110.025169 293.468658,122.549744 
	C284.561249,133.163239 284.009308,145.726913 285.221375,158.516769 
	C287.020782,177.504196 293.756226,194.676697 305.374603,209.895035 
	C312.285309,218.947067 320.712341,226.145309 331.217590,230.563614 
	C334.638031,232.002197 338.598480,232.866699 342.289948,232.798752 
	C349.303619,232.669632 352.994904,228.320145 352.996429,221.390152 
	C352.997040,218.733627 352.996521,216.077103 352.996521,212.734390 
	C341.998505,212.069122 331.064392,206.795288 320.460266,215.407562 
	C318.627228,213.180176 316.775970,210.930710 314.448364,208.102386 
	C321.764130,200.855270 330.569611,193.741440 337.307922,185.028885 
	C344.845856,175.282379 353.798645,174.333755 364.498383,176.326172 
	C370.873077,177.513184 377.326996,178.358047 383.779572,179.025620 
	C396.827698,180.375534 398.895752,179.802780 410.163116,172.709427 
	C411.735962,174.873657 413.395142,177.156647 415.499756,180.052536 
	C410.882416,185.259277 405.329742,191.370773 399.962311,197.640823 
	C397.527618,200.484940 393.603943,203.644241 393.605133,206.659286 
	C393.607758,213.339310 395.307770,220.112625 397.032166,226.659134 
	C397.919678,230.028305 401.115479,230.786224 404.418213,229.270798 
	C406.364471,228.377792 408.274536,227.405807 410.431427,226.357269 
	C412.403290,228.940308 414.296112,231.419800 416.466614,234.263031 
	C402.033630,246.001862 387.861298,257.528687 373.556366,269.163391 
	C364.962219,264.319580 360.263275,256.625702 356.524872,247.656631 
	C355.549713,248.528381 354.626984,249.146927 353.965637,249.974426 
	C333.324860,275.799194 301.140106,273.666138 279.584961,255.313431 
	C266.859497,244.478546 258.034607,230.965591 251.710571,215.224731 
z"/>
<path fill="#1D2D3B" opacity="1.000000" stroke="none" 
	d="
M102.589272,383.742920 
	C101.320000,384.922760 100.152618,385.715515 98.191406,387.047394 
	C98.191406,383.681885 98.191406,381.506012 98.191406,379.306305 
	C101.873772,378.514801 102.718872,380.472260 102.589272,383.742920 
z"/>
<path fill="#1C2C3A" opacity="1.000000" stroke="none" 
	d="
M314.988525,373.156616 
	C316.021271,372.172455 317.043152,371.622711 318.065033,371.072998 
	C318.587433,372.343506 319.759583,373.791565 319.472778,374.840912 
	C319.087433,376.250732 317.575439,377.352570 316.547058,378.586609 
	C316.109863,378.330078 315.672638,378.073517 315.235443,377.816986 
	C315.149536,376.408325 315.063599,374.999695 314.988525,373.156616 
z"/>
<path fill="#192734" opacity="1.000000" stroke="none" 
	d="
M140.184235,385.335571 
	C139.984863,380.481384 139.984863,376.020264 139.984863,371.600708 
	C144.647278,370.875031 146.325775,372.408844 146.688751,377.469604 
	C147.084503,382.987061 145.065018,385.632324 140.184235,385.335571 
z"/>
<path fill="#1F303E" opacity="1.000000" stroke="none" 
	d="
M400.428894,377.338684 
	C400.223297,375.032196 400.223297,373.092133 400.223297,371.152069 
	C400.698212,370.861298 401.173126,370.570526 401.648071,370.279755 
	C402.739624,371.560638 404.553131,372.732147 404.767242,374.145905 
	C405.170166,376.806366 403.877319,378.681396 400.428894,377.338684 
z"/>
<path fill="#1A2834" opacity="1.000000" stroke="none" 
	d="
M378.430603,371.090179 
	C381.867493,370.059448 383.862488,371.327148 384.191132,374.315033 
	C384.510437,377.217834 384.558441,380.274689 383.953613,383.098572 
	C383.682465,384.364410 381.605316,385.900330 380.204254,386.060730 
	C379.069916,386.190552 376.899750,384.648102 376.614807,383.495026 
	C375.590729,379.351105 374.677032,374.994080 378.430603,371.090179 
z"/>
<path fill="#FBFBFB" opacity="1.000000" stroke="none" 
	d="
M207.962463,296.985291 
	C201.899643,294.602509 196.323349,291.932526 190.477188,290.145386 
	C184.659592,288.367004 178.570953,287.475311 172.258942,286.121399 
	C172.258942,273.277405 172.258942,260.014221 172.258942,246.297150 
	C189.836716,240.683624 206.721558,242.944946 222.876648,251.731552 
	C231.782135,256.575165 239.547546,262.924286 244.233963,272.084595 
	C246.291794,276.106934 247.848557,280.799316 248.077652,285.267212 
	C248.811584,299.580231 238.203186,307.635193 224.530930,303.413513 
	C219.006226,301.707642 213.723541,299.217987 207.962463,296.985291 
M206.614761,282.897095 
	C213.705414,285.717041 220.703583,288.807465 227.915314,291.273346 
	C233.939774,293.333221 236.774963,290.743530 236.024338,284.363159 
	C235.816483,282.596252 235.119110,280.825226 234.350616,279.195557 
	C227.108490,263.837738 202.276886,252.565430 184.364151,256.540436 
	C184.364151,262.929871 184.364151,269.349152 184.364151,275.215881 
	C191.790634,277.760590 198.847061,280.178528 206.614761,282.897095 
z"/>
<path fill="#FCFCFC" opacity="1.000000" stroke="none" 
	d="
M221.854034,180.774261 
	C213.679489,189.725372 206.126999,198.827179 197.565170,206.852097 
	C189.871445,214.063324 181.069214,220.091904 171.997513,227.239807 
	C171.997513,219.809753 171.997543,213.241898 171.997498,206.674042 
	C171.997437,194.360947 172.134369,182.045288 171.905014,169.736465 
	C171.844437,166.485168 172.902237,164.623398 175.528046,162.896896 
	C180.800629,159.430176 186.364609,156.159744 190.871887,151.832825 
	C197.923798,145.063095 205.605896,146.190155 213.566162,148.569077 
	C224.650223,151.881531 229.356018,160.829544 225.909271,171.867523 
	C224.980042,174.843307 223.346771,177.599258 221.854034,180.774261 
M184.134674,182.550842 
	C184.134674,188.637177 184.134674,194.723526 184.134674,201.874863 
	C195.454315,193.336594 205.354523,184.915100 212.171127,173.461029 
	C217.445724,164.598038 215.196503,160.197540 204.988022,159.233582 
	C203.488678,159.092026 201.693085,159.566879 200.393188,160.351028 
	C197.555634,162.062744 195.141525,164.539383 192.208618,166.017273 
	C185.632889,169.330795 182.621857,174.204468 184.134674,182.550842 
z"/>
<path fill="#18222B" opacity="1.000000" stroke="none" 
	d="
M206.259125,282.746765 
	C198.847061,280.178528 191.790634,277.760590 184.364151,275.215881 
	C184.364151,269.349152 184.364151,262.929871 184.364151,256.540436 
	C202.276886,252.565430 227.108490,263.837738 234.350616,279.195557 
	C235.119110,280.825226 235.816483,282.596252 236.024338,284.363159 
	C236.774963,290.743530 233.939774,293.333221 227.915314,291.273346 
	C220.703583,288.807465 213.705414,285.717041 206.259125,282.746765 
z"/>
<path fill="#1B242D" opacity="1.000000" stroke="none" 
	d="
M184.134552,182.062729 
	C182.621857,174.204468 185.632889,169.330795 192.208618,166.017273 
	C195.141525,164.539383 197.555634,162.062744 200.393188,160.351028 
	C201.693085,159.566879 203.488678,159.092026 204.988022,159.233582 
	C215.196503,160.197540 217.445724,164.598038 212.171127,173.461029 
	C205.354523,184.915100 195.454315,193.336594 184.134674,201.874863 
	C184.134674,194.723526 184.134674,188.637177 184.134552,182.062729 
z"/>
</svg>